<svg xmlns="http://www.w3.org/2000/svg" viewBox="0 0 40 40" fill="none">
  <circle cx="20" cy="20" r="18" fill="url(#paint0_linear)" fill-opacity="0.1" />
  <path d="M20 8C20 8 16 14 16 20C16 26 20 32 20 32C20 32 24 26 24 20C24 14 20 8 20 8Z" fill="#10B981" />
  <path d="M20 8C20 8 26 12 30 18C34 24 30 30 30 30C30 30 24 30 18 26C12 22 10 16 10 16C10 16 14 12 20 8Z" fill="#10B981" opacity="0.6" />
  <path d="M20 8C20 8 14 12 10 18C6 24 10 30 10 30C10 30 16 30 22 26C28 22 30 16 30 16C30 16 26 12 20 8Z" fill="#10B981" opacity="0.6" />
  <defs>
    <linearGradient id="paint0_linear" x1="20" y1="2" x2="20" y2="38" gradientUnits="userSpaceOnUse">
      <stop stop-color="#10B981" />
      <stop offset="1" stop-color="#3B82F6" />
    </linearGradient>
  </defs>
</svg>
